<svg xmlns="http://www.w3.org/2000/svg" xmlns:xlink="http://www.w3.org/1999/xlink" width="500" zoomAndPan="magnify" viewBox="0 0 375 374.999991" height="500" preserveAspectRatio="xMidYMid meet" version="1.0"><defs><clipPath id="3ece57b0af"><path d="M 243 318 L 282 318 L 282 360.300781 L 243 360.300781 Z M 243 318 " clip-rule="nonzero"/></clipPath></defs><path fill="#00adef" d="M 12.160156 107.71875 C 31.632812 86.128906 58.703125 70.542969 85.269531 56.15625 L 86.601562 55.457031 L 89.527344 53.863281 C 108.105469 57.683594 125.394531 62.902344 141.222656 69.472656 C 138.929688 97.523438 136.617188 125.535156 134.304688 153.585938 L 134.214844 154.613281 C 108.191406 170.308594 81.800781 186.636719 57.894531 205.390625 C 37.703125 197.773438 18.207031 188.972656 0 179.28125 L 0 179.238281 C 1.003906 155.464844 4.257812 133.828125 9.757812 114.660156 " fill-opacity="1" fill-rule="evenodd"/><path fill="#2e3192" d="M 252.339844 27.382812 L 246.46875 41.746094 C 244.242188 41.636719 241.929688 41.59375 239.503906 41.59375 C 215.292969 41.59375 181.851562 46.550781 150.066406 54.84375 L 146.003906 55.9375 L 145.980469 55.9375 C 131.050781 49.300781 112.121094 43.886719 96.535156 40.984375 C 99.265625 36.246094 103.019531 31.921875 108.019531 27.601562 C 131.070312 19.128906 155.28125 14.828125 180.015625 14.785156 L 180.410156 14.785156 C 204.902344 14.785156 228.984375 18.976562 251.949219 27.25 L 252.339844 27.382812 " fill-opacity="1" fill-rule="evenodd"/><path fill="#2e3192" d="M 370.269531 134.15625 C 370.269531 142.5625 369.3125 149.898438 367.390625 156.074219 C 366.777344 155.636719 366.167969 155.222656 365.554688 154.808594 C 365.230469 154.589844 364.902344 154.351562 364.574219 154.152344 C 363.742188 153.585938 362.894531 153.019531 362.0625 152.472656 C 348.789062 143.71875 334.492188 135.992188 319.472656 129.464844 L 316.808594 124.855469 C 300.347656 96.476562 281.027344 70.28125 259.304688 47.03125 L 266.269531 33.035156 C 268.539062 34.039062 270.808594 35.089844 273.039062 36.179688 L 273.691406 36.507812 C 294.105469 46.570312 312.703125 59.910156 328.96875 76.152344 C 346.082031 93.160156 359.945312 112.652344 370.269531 134.15625 " fill-opacity="1" fill-rule="evenodd"/><path fill="#00adef" d="M 374.308594 257.042969 L 374.308594 257.414062 C 374.265625 259.3125 374.199219 261.210938 374.113281 263.132812 L 374.027344 265.6875 C 361.648438 285.816406 347.65625 304.589844 332.265625 321.726562 C 309.058594 313.953125 286.617188 304.917969 265.59375 294.808594 C 263.824219 270.90625 258.976562 239.554688 254.4375 216.742188 C 253.761719 212.660156 253.0625 208.839844 252.363281 205.195312 L 252.515625 205.042969 C 274.0625 184.824219 294.628906 163.039062 313.707031 140.246094 C 331.566406 149 348.15625 159.195312 363.265625 170.722656 L 365.074219 176.355469 L 365.183594 176.726562 C 372.039062 199.410156 375.117188 226.480469 374.308594 257.042969 " fill-opacity="1" fill-rule="evenodd"/><path fill="#00adef" d="M 244.503906 300.046875 L 244.503906 300.070312 C 244.417969 300.136719 244.328125 300.203125 244.242188 300.265625 L 243.695312 300.746094 C 223.132812 318.363281 200.121094 333.777344 174.40625 350.433594 L 170.890625 352.703125 L 86.210938 318.058594 C 86.164062 317.863281 86.121094 317.644531 86.078125 317.425781 L 84.15625 308.386719 L 84.027344 308.386719 C 78.046875 280.335938 74.007812 249.945312 72.042969 217.878906 L 72.019531 217.355469 L 141.375 165.089844 L 146.746094 161.03125 C 177.484375 171.269531 206.429688 183.40625 232.890625 197.117188 C 233.238281 199.386719 233.566406 201.636719 233.871094 203.882812 C 238.328125 234.90625 241.886719 267.171875 244.503906 300.046875 " fill-opacity="1" fill-rule="evenodd"/><path fill="#00adef" d="M 51.476562 248.351562 C 51.457031 248.375 51.457031 248.375 51.433594 248.398438 L 51.300781 248.507812 C 46.828125 252.347656 41.804688 255.710938 36.195312 259.335938 L 35.429688 259.835938 L 16.960938 252.28125 C 16.960938 252.238281 16.941406 252.195312 16.941406 252.152344 L 16.527344 250.164062 L 16.480469 250.164062 C 15.195312 244.054688 14.300781 237.4375 13.863281 230.429688 L 13.863281 230.320312 L 28.992188 218.925781 L 30.171875 218.03125 C 36.871094 220.277344 43.179688 222.921875 48.945312 225.910156 C 49.03125 226.390625 49.097656 226.894531 49.164062 227.375 C 50.125 234.140625 50.910156 241.171875 51.476562 248.351562 " fill-opacity="1" fill-rule="evenodd"/><g clip-path="url(#3ece57b0af)"><path fill="#00adef" d="M 281.050781 348.820312 C 281.027344 348.839844 281.003906 348.863281 280.984375 348.863281 L 280.875 348.972656 C 276.398438 352.8125 271.355469 356.175781 265.769531 359.800781 L 265.003906 360.300781 L 246.535156 352.75 C 246.511719 352.703125 246.511719 352.660156 246.492188 352.617188 L 246.078125 350.628906 L 246.054688 350.628906 C 244.746094 344.519531 243.871094 337.902344 243.433594 330.894531 L 243.433594 330.785156 L 258.5625 319.390625 L 259.71875 318.496094 C 266.421875 320.746094 272.753906 323.386719 278.515625 326.375 C 278.582031 326.855469 278.648438 327.359375 278.734375 327.859375 C 279.695312 334.605469 280.480469 341.65625 281.050781 348.820312 " fill-opacity="1" fill-rule="evenodd"/></g><path fill="#2e3192" d="M 308.164062 129.289062 C 288.734375 152.667969 267.996094 174.738281 245.921875 195.480469 L 244.066406 194.476562 C 242.910156 193.863281 241.777344 193.253906 240.027344 192.335938 C 239.855469 192.226562 239.65625 192.117188 239.441406 192.03125 C 210.753906 176.921875 179.839844 164.042969 146.898438 153.238281 C 149.257812 124.441406 151.613281 95.648438 153.972656 66.851562 L 154.148438 64.605469 C 187.746094 55.828125 225.621094 50.4375 249.308594 51.964844 L 250.835938 52.074219 C 272.578125 75.171875 291.703125 100.910156 308.164062 129.289062 " fill-opacity="1" fill-rule="evenodd"/></svg>